<?xml version="1.0" encoding="UTF-8" standalone="no"?>
<svg
   height="96"
   viewBox="0 0 48 48"
   width="96"
   fill="#000000"
   version="1.1"
   id="svg1024"
   sodipodi:docname="black.svg"
   inkscape:version="1.1 (c68e22c387, 2021-05-23)"
   xmlns:inkscape="http://www.inkscape.org/namespaces/inkscape"
   xmlns:sodipodi="http://sodipodi.sourceforge.net/DTD/sodipodi-0.dtd"
   xmlns="http://www.w3.org/2000/svg"
   xmlns:svg="http://www.w3.org/2000/svg">
  <defs
     id="defs1028" />
  <sodipodi:namedview
     id="namedview1026"
     pagecolor="#ffffff"
     bordercolor="#666666"
     borderopacity="1.0"
     inkscape:pageshadow="2"
     inkscape:pageopacity="0.0"
     inkscape:pagecheckerboard="true"
     showgrid="false"
     inkscape:snap-bbox="true"
     inkscape:bbox-paths="true"
     inkscape:bbox-nodes="true"
     inkscape:snap-bbox-edge-midpoints="true"
     inkscape:snap-bbox-midpoints="true"
     inkscape:snap-page="true"
     inkscape:zoom="1.7213542"
     inkscape:cx="36.889561"
     inkscape:cy="22.075643"
     inkscape:window-width="1278"
     inkscape:window-height="1406"
     inkscape:window-x="0"
     inkscape:window-y="0"
     inkscape:window-maximized="1"
     inkscape:current-layer="svg1024" />
  <g
     fill="none"
     id="g1020"
     transform="scale(2)">
    <path
       d="M 0,0 H 24 V 24 H 0 Z"
       id="path1016" />
    <path
       d="M 0,0 H 24 V 24 H 0 Z"
       opacity="0.87"
       id="path1018" />
  </g>
  <path
     d="M 36,16 H 34 V 12 C 34,6.48 29.52,2 24,2 18.48,2 14,6.48 14,12 v 4 h -2 c -2.2,0 -4,1.8 -4,4 v 20 c 0,2.2 1.8,4 4,4 h 24 c 2.2,0 4,-1.8 4,-4 V 20 c 0,-2.2 -1.8,-4 -4,-4 z M 18,12 c 0,-3.32 2.68,-6 6,-6 3.32,0 6,2.68 6,6 v 4 H 18 Z M 36,40 H 12 V 20 H 36 Z M 24,34 c 2.2,0 4,-1.8 4,-4 0,-2.2 -1.8,-4 -4,-4 -2.2,0 -4,1.8 -4,4 0,2.2 1.8,4 4,4 z"
     id="path1022"
     style="stroke-width:2" />
</svg>
