<?xml version="1.0" encoding="UTF-8" standalone="no"?>
<svg
   height="96"
   viewBox="0 0 48 48"
   width="96"
   fill="#ffffff"
   version="1.1"
   id="svg893"
   sodipodi:docname="white.svg"
   inkscape:version="1.1 (c68e22c387, 2021-05-23)"
   xmlns:inkscape="http://www.inkscape.org/namespaces/inkscape"
   xmlns:sodipodi="http://sodipodi.sourceforge.net/DTD/sodipodi-0.dtd"
   xmlns="http://www.w3.org/2000/svg"
   xmlns:svg="http://www.w3.org/2000/svg">
  <defs
     id="defs897" />
  <sodipodi:namedview
     id="namedview895"
     pagecolor="#ffffff"
     bordercolor="#666666"
     borderopacity="1.0"
     inkscape:pageshadow="2"
     inkscape:pageopacity="0.0"
     inkscape:pagecheckerboard="true"
     showgrid="false"
     lock-margins="true"
     inkscape:snap-bbox="true"
     inkscape:bbox-paths="true"
     inkscape:bbox-nodes="true"
     inkscape:snap-bbox-edge-midpoints="true"
     inkscape:snap-bbox-midpoints="true"
     inkscape:snap-page="true"
     inkscape:zoom="4.0879611"
     inkscape:cx="-12.231036"
     inkscape:cy="33.513039"
     inkscape:window-width="2560"
     inkscape:window-height="1408"
     inkscape:window-x="0"
     inkscape:window-y="0"
     inkscape:window-maximized="1"
     inkscape:current-layer="svg893" />
  <g
     fill="none"
     id="g889"
     transform="scale(2)">
    <path
       d="M 0,0 H 24 V 24 H 0 Z"
       id="path885" />
    <path
       d="M 0,0 H 24 V 24 H 0 Z"
       opacity="0.87"
       id="path887" />
  </g>
  <path
     d="m 36.000001,16 h -2 v -4 c 0,-5.5199999 -4.48,-10 -10,-10 -5.52,0 -10,4.4800001 -10,10 v 4 H 12 c -2.1999997,0 -3.9999998,1.8 -3.9999998,4 v 20.000001 c 0,2.2 1.8000001,4 3.9999998,4 h 24.000001 c 2.2,0 4,-1.8 4,-4 V 20 c 0,-2.2 -1.8,-4 -4,-4 z m -18,-4 c 0,-3.3199998 2.679999,-5.9999999 6,-5.9999999 3.319999,0 6,2.6800001 6,5.9999999 v 4 h -12 z m 18,28.000001 H 12 V 20 h 24.000001 z m -12,-6 c 2.2,0 4,-1.8 4,-4 0,-2.200001 -1.8,-4.000001 -4,-4.000001 C 21.8,26 20,27.8 20,30.000001 c 0,2.2 1.8,4 4.000001,4 z"
     id="path891"
     style="stroke-width:2" />
</svg>
